<?xml version="1.0" ?><svg contentScriptType="text/ecmascript" contentStyleType="text/css" enable-background="new 0 0 2048 2048" height="2048px" id="Layer_1" preserveAspectRatio="xMidYMid meet" version="1.1" viewBox="0.0 0 1664.0 2048" width="1664.0px" xml:space="preserve" xmlns="http://www.w3.org/2000/svg" xmlns:xlink="http://www.w3.org/1999/xlink" zoomAndPan="magnify"><path d="M128,1792h288v-288H128V1792z M480,1792h320v-288H480V1792z M128,1440h288v-320H128V1440z M480,1440h320v-320H480V1440z   M128,1056h288V768H128V1056z M864,1792h320v-288H864V1792z M480,1056h320V768H480V1056z M1248,1792h288v-288h-288V1792z M864,1440  h320v-320H864V1440z M512,576V288c0-8.667-3.167-16.167-9.5-22.5S488.667,256,480,256h-64c-8.667,0-16.167,3.167-22.5,9.5  S384,279.333,384,288v288c0,8.667,3.167,16.167,9.5,22.5s13.833,9.5,22.5,9.5h64c8.667,0,16.167-3.167,22.5-9.5S512,584.667,512,576  z M1248,1440h288v-320h-288V1440z M864,1056h320V768H864V1056z M1248,1056h288V768h-288V1056z M1280,576V288  c0-8.667-3.167-16.167-9.5-22.5s-13.833-9.5-22.5-9.5h-64c-8.667,0-16.167,3.167-22.5,9.5s-9.5,13.833-9.5,22.5v288  c0,8.667,3.167,16.167,9.5,22.5s13.833,9.5,22.5,9.5h64c8.667,0,16.167-3.167,22.5-9.5S1280,584.667,1280,576z M1664,512v1280  c0,34.667-12.667,64.667-38,90s-55.333,38-90,38H128c-34.667,0-64.667-12.667-90-38s-38-55.333-38-90V512  c0-34.667,12.667-64.667,38-90s55.333-38,90-38h128v-96c0-44,15.667-81.667,47-113s69-47,113-47h64c44,0,81.667,15.667,113,47  s47,69,47,113v96h384v-96c0-44,15.667-81.667,47-113s69-47,113-47h64c44,0,81.667,15.667,113,47s47,69,47,113v96h128  c34.667,0,64.667,12.667,90,38S1664,477.333,1664,512z"/></svg>