<?xml version="1.0" ?><svg contentScriptType="text/ecmascript" contentStyleType="text/css" enable-background="new 0 0 2048 2048" height="2048px" id="Layer_1" preserveAspectRatio="xMidYMid meet" version="1.1" viewBox="54.0 0 1685.0 2048" width="1685.0px" xml:space="preserve" xmlns="http://www.w3.org/2000/svg" xmlns:xlink="http://www.w3.org/1999/xlink" zoomAndPan="magnify"><path d="M1024,580l316,316l-572,572l-316-316L1024,580z M813,1559l618-618c12.667-12.667,19-27.667,19-45s-6.333-32.333-19-45  l-362-362c-12-12-27-18-45-18s-33,6-45,18l-618,618c-12.667,12.667-19,27.667-19,45c0,17.333,6.333,32.333,19,45l362,362  c12,12,27,18,45,18S801,1571,813,1559z M1702,922l-907,908c-24.667,24.667-54.833,37-90.5,37s-65.833-12.333-90.5-37l-126-126  c37.333-37.333,56-82.667,56-136s-18.667-98.667-56-136s-82.667-56-136-56s-98.667,18.667-136,56L91,1306  c-24.667-24.667-37-54.833-37-90.5s12.333-65.833,37-90.5l907-906c24.667-24.667,54.833-37,90.5-37s65.833,12.333,90.5,37l125,125  c-37.333,37.333-56,82.667-56,136s18.667,98.667,56,136c37.333,37.333,82.667,56,136,56s98.667-18.667,136-56l126,125  c24.667,24.667,37,54.833,37,90.5S1726.667,897.333,1702,922z"/></svg>